<svg width="24" height="24" viewBox="0 0 24 24" fill="none" xmlns="http://www.w3.org/2000/svg">
<path fill-rule="evenodd" clip-rule="evenodd" d="M12 0C5.37258 0 0 5.37258 0 12C0 18.6274 5.37258 24 12 24C18.6274 24 24 18.6274 24 12C24 5.37258 18.6274 0 12 0ZM9.36163 5.63868C10.0443 5.60761 10.2624 5.60001 12.0006 5.60001H11.9986C13.7373 5.60001 13.9546 5.60761 14.6373 5.63868C15.3186 5.66988 15.784 5.77774 16.192 5.93601C16.6133 6.09935 16.9693 6.31802 17.3253 6.67402C17.6813 7.02976 17.9 7.38683 18.064 7.80776C18.2213 8.2147 18.3293 8.67977 18.3613 9.36111C18.392 10.0438 18.4 10.2619 18.4 12.0001C18.4 13.7382 18.392 13.9558 18.3613 14.6385C18.3293 15.3196 18.2213 15.7848 18.064 16.1919C17.9 16.6127 17.6813 16.9697 17.3253 17.3255C16.9697 17.6815 16.6132 17.9007 16.1924 18.0641C15.7852 18.2224 15.3196 18.3303 14.6382 18.3615C13.9555 18.3925 13.7381 18.4001 11.9998 18.4001C10.2618 18.4001 10.0438 18.3925 9.3611 18.3615C8.67989 18.3303 8.21468 18.2224 7.80748 18.0641C7.38681 17.9007 7.02974 17.6815 6.67413 17.3255C6.31826 16.9697 6.09959 16.6127 5.93599 16.1917C5.77786 15.7848 5.66999 15.3197 5.63866 14.6384C5.60772 13.9557 5.59999 13.7382 5.59999 12.0001C5.59999 10.2619 5.60799 10.0437 5.63852 9.36098C5.66919 8.67991 5.77719 8.2147 5.93586 7.80763C6.09986 7.38683 6.31853 7.02976 6.67453 6.67402C7.03027 6.31815 7.38734 6.09948 7.80828 5.93601C8.21522 5.77774 8.68029 5.66988 9.36163 5.63868Z" fill="#BBCFE7"/>
<path fill-rule="evenodd" clip-rule="evenodd" d="M11.4265 6.75331C11.5379 6.75313 11.6579 6.75319 11.7873 6.75325L12.0006 6.75331C13.7094 6.75331 13.9119 6.75944 14.5868 6.79011C15.2108 6.81864 15.5494 6.92291 15.775 7.01051C16.0737 7.12651 16.2866 7.26518 16.5105 7.48918C16.7345 7.71319 16.8732 7.92652 16.9894 8.22519C17.077 8.45053 17.1814 8.7892 17.2099 9.4132C17.2405 10.0879 17.2472 10.2905 17.2472 11.9986C17.2472 13.7066 17.2405 13.9093 17.2099 14.5839C17.1813 15.2079 17.077 15.5466 16.9894 15.7719C16.8734 16.0706 16.7345 16.2833 16.5105 16.5071C16.2865 16.7311 16.0738 16.8698 15.775 16.9858C15.5497 17.0738 15.2108 17.1778 14.5868 17.2064C13.9121 17.237 13.7094 17.2437 12.0006 17.2437C10.2916 17.2437 10.0891 17.237 9.41444 17.2064C8.79043 17.1776 8.45176 17.0733 8.22602 16.9857C7.92735 16.8697 7.71402 16.731 7.49002 16.507C7.26601 16.283 7.12735 16.0702 7.01108 15.7714C6.92348 15.5461 6.81908 15.2074 6.79068 14.5834C6.76001 13.9087 6.75388 13.706 6.75388 11.997C6.75388 10.2879 6.76001 10.0863 6.79068 9.4116C6.81921 8.7876 6.92348 8.44893 7.01108 8.22332C7.12708 7.92465 7.26601 7.71132 7.49002 7.48732C7.71402 7.26331 7.92735 7.12465 8.22602 7.00838C8.45163 6.92038 8.79043 6.81638 9.41444 6.78771C10.0048 6.76104 10.2336 6.75304 11.4265 6.75171V6.75331ZM15.4169 7.81601C14.9929 7.81601 14.6489 8.15962 14.6489 8.58375C14.6489 9.00776 14.9929 9.35176 15.4169 9.35176C15.8409 9.35176 16.1849 9.00776 16.1849 8.58375C16.1849 8.15975 15.8409 7.81575 15.4169 7.81575V7.81601ZM8.71389 12C8.71389 10.185 10.1854 8.71339 12.0005 8.71331C13.8155 8.71331 15.2868 10.1849 15.2868 12C15.2868 13.8151 13.8157 15.2861 12.0006 15.2861C10.1855 15.2861 8.71389 13.8151 8.71389 12Z" fill="#BBCFE7"/>
<path d="M12.0006 9.8667C13.1787 9.8667 14.134 10.8218 14.134 12.0001C14.134 13.1782 13.1787 14.1334 12.0006 14.1334C10.8223 14.1334 9.86725 13.1782 9.86725 12.0001C9.86725 10.8218 10.8223 9.8667 12.0006 9.8667Z" fill="#BBCFE7"/>
</svg>
