<svg width="24" height="24" viewBox="0 0 24 24" fill="none" xmlns="http://www.w3.org/2000/svg">
<path opacity="0.4" d="M19.88 20.9401C18.93 21.6401 17.68 22.0001 16.19 22.0001H7.80997C7.56997 22.0001 7.32998 21.9901 7.09998 21.9601L14 15.0601L19.88 20.9401Z" fill="#BBCFE7"/>
<path opacity="0.4" d="M22 7.8101V16.1901C22 17.6801 21.64 18.9301 20.94 19.8801L15.06 14.0001L21.96 7.1001C21.99 7.3301 22 7.5701 22 7.8101Z" fill="#BBCFE7"/>
<path opacity="0.4" d="M15.06 14L20.94 19.88C20.65 20.3 20.3 20.65 19.88 20.94L14 15.06L7.10001 21.96C6.46001 21.92 5.88001 21.79 5.35001 21.59C3.21001 20.81 2 18.91 2 16.19V7.81C2 4.17 4.17 2 7.81 2H16.19C18.91 2 20.81 3.21 21.59 5.35C21.79 5.88 21.92 6.46 21.96 7.1L15.06 14Z" fill="#BBCFE7"/>
<path d="M15.06 14.0001L20.94 19.8801C20.65 20.3001 20.3 20.6501 19.88 20.9401L14 15.0601L7.09998 21.9601C6.45998 21.9201 5.87998 21.7901 5.34998 21.5901L5.73996 21.2001L21.59 5.3501C21.79 5.8801 21.92 6.4601 21.96 7.1001L15.06 14.0001Z" fill="#BBCFE7"/>
<path d="M12.24 7.93003C11.86 6.28003 10.4 5.54003 9.11999 5.53003C7.83999 5.53003 6.38 6.27003 6 7.92003C5.58 9.75003 6.69999 11.28 7.70999 12.24C8.10999 12.62 8.60999 12.8 9.11999 12.8C9.62999 12.8 10.13 12.61 10.53 12.24C11.54 11.28 12.66 9.75003 12.24 7.93003ZM9.14999 9.49003C8.59999 9.49003 8.14999 9.04003 8.14999 8.49003C8.14999 7.94003 8.58999 7.49003 9.14999 7.49003H9.16C9.71 7.49003 10.16 7.94003 10.16 8.49003C10.16 9.04003 9.69999 9.49003 9.14999 9.49003Z" fill="#BBCFE7"/>
</svg>
