<svg width="24" height="24" viewBox="0 0 24 24" fill="none" xmlns="http://www.w3.org/2000/svg">
<path fill-rule="evenodd" clip-rule="evenodd" d="M12 0C5.37258 0 0 5.37258 0 12C0 18.6274 5.37258 24 12 24C18.6274 24 24 18.6274 24 12C24 5.37258 18.6274 0 12 0ZM11.6658 10.169L11.6406 9.75376C11.5651 8.67756 12.2282 7.69457 13.2774 7.31324C13.6635 7.17766 14.3182 7.16071 14.7463 7.27935C14.9142 7.33019 15.2331 7.49967 15.4598 7.6522L15.8711 7.93185L16.3243 7.78779C16.5761 7.71152 16.9119 7.58441 17.063 7.49967C17.2057 7.42341 17.3316 7.38104 17.3316 7.40646C17.3316 7.55052 17.021 8.04201 16.7608 8.31318C16.4083 8.69451 16.509 8.7284 17.2225 8.47418C17.6505 8.33013 17.6589 8.33013 17.575 8.49113C17.5246 8.57587 17.2644 8.87246 16.9874 9.14363C16.5174 9.6097 16.4922 9.66055 16.4922 10.0504C16.4922 10.652 16.2068 11.9062 15.9214 12.5926C15.3926 13.8806 14.2595 15.211 13.1263 15.8805C11.5315 16.8211 9.40787 17.0584 7.62 16.5076C7.02404 16.3211 6.00001 15.8466 6.00001 15.7618C6.00001 15.7364 6.31058 15.7025 6.68829 15.694C7.47731 15.6771 8.26632 15.4568 8.93782 15.067L9.39108 14.7958L8.87067 14.6178C8.13202 14.3636 7.46891 13.7789 7.30104 13.2281C7.25068 13.0502 7.26746 13.0417 7.73751 13.0417L8.22435 13.0332L7.81306 12.8383C7.32622 12.5926 6.88135 12.1773 6.66311 11.7536C6.50363 11.4486 6.30218 10.6774 6.36094 10.6181C6.37773 10.5927 6.55399 10.6435 6.75544 10.7113C7.33461 10.9232 7.41016 10.8723 7.07441 10.5164C6.44488 9.8724 6.25182 8.91483 6.55399 8.00811L6.69669 7.60136L7.25068 8.15217C8.38383 9.26227 9.71844 9.92324 11.2461 10.1181L11.6658 10.169Z" fill="#BBCFE7"/>
</svg>
